<svg width="24" height="24" viewBox="0 0 24 24" fill="none" xmlns="http://www.w3.org/2000/svg">
<path fill-rule="evenodd" clip-rule="evenodd" d="M19.165 14.6318C19.6 14.6318 19.99 14.3318 20.14 13.8968L22.165 7.77682C22.405 7.05682 21.91 6.30682 21.19 6.30682H8.2L7.72 4.82182C7.21 3.24682 5.71 2.18182 3.97 2.18182H2.155C1.51 2.19682 1 2.70682 1 3.35182C1 3.99682 1.51 4.50682 2.155 4.50682H3.985C4.705 4.50682 5.35 4.94182 5.545 5.55682L8.185 13.7468C6.145 16.8668 6.505 17.5418 6.73 17.9618C6.955 18.3968 7.405 18.6668 7.915 18.6668C9.54681 18.6668 12.7441 18.6411 15.4718 18.6191H15.4719L15.4747 18.619C16.9081 18.6075 18.2117 18.597 19.09 18.5918C19.72 18.5918 20.23 18.0668 20.23 17.4368C20.23 16.8068 19.705 16.2968 19.075 16.2968C18.2833 16.3023 17.151 16.3119 15.8908 16.3225L15.8901 16.3225C13.7125 16.3408 11.1532 16.3623 9.31 16.3718C9.595 15.8618 9.97 15.2468 10.36 14.6618H15.25L19.165 14.6318ZM8.51496 22.6718C9.47594 22.6718 10.255 21.8927 10.255 20.9318C10.255 19.9708 9.47594 19.1918 8.51496 19.1918C7.55399 19.1918 6.77496 19.9708 6.77496 20.9318C6.77496 21.8927 7.55399 22.6718 8.51496 22.6718ZM20.755 20.9318C20.755 21.8927 19.9759 22.6718 19.015 22.6718C18.054 22.6718 17.275 21.8927 17.275 20.9318C17.275 19.9708 18.054 19.1918 19.015 19.1918C19.9759 19.1918 20.755 19.9708 20.755 20.9318Z" fill="#252525"/>
</svg>
