<svg width="36" height="36" viewBox="0 0 36 36" fill="none" xmlns="http://www.w3.org/2000/svg">
<circle cx="18" cy="18" r="16" fill="white" stroke="#66CA1A" stroke-width="4"/>
<path fill-rule="evenodd" clip-rule="evenodd" d="M9.7836 19.5044H8.69035C6.98508 19.5044 8.22397 15.5221 9.65964 15.5221H11.3869C11.6638 15.5221 12.152 15.5781 12.3926 14.825L12.7643 13.6552H10.3957C9.11307 13.6552 8.11463 14.1519 7.39317 14.9853C6.14692 16.4115 5.72431 18.639 6.02306 19.7046C6.30729 20.6902 7.07979 21.3392 8.28953 21.3552L9.22966 21.3633H10.3885L10.6727 20.4258C10.884 19.7607 10.4103 19.5044 9.7836 19.5044ZM23.0909 17.8538L23.4481 16.5798H19.6366C19.0026 16.5798 18.7184 16.7721 18.609 17.1727L18.2519 18.4467H22.0634C22.6975 18.4467 22.9817 18.2544 23.0909 17.8538ZM17.6835 20.0973L17.3264 21.3712H21.1378C21.7646 21.3712 22.0561 21.179 22.1654 20.7784L22.5226 19.5044H18.711C18.0843 19.5044 17.8001 19.6967 17.6835 20.0973ZM23.9801 14.9371L24.3372 13.6632H20.5257C19.8917 13.6632 19.6074 13.8554 19.4981 14.256L19.141 15.5301H22.9525C23.5793 15.5301 23.8634 15.3378 23.9801 14.9371ZM18.2227 15.1936C18.0624 14.0077 17.4867 13.6632 16.0875 13.6632H13.5368L12.0501 18.4467H12.9902C13.5513 18.4467 13.8355 18.4547 14.1344 17.5733L14.7538 15.5221H15.7012C16.5102 15.5221 16.3279 16.6359 15.9198 17.7175C15.5554 18.6711 14.9214 19.5123 14.1562 19.5123H12.5747C11.9407 19.5123 11.6492 19.7046 11.5326 20.1053L11.1391 21.3793H12.2978L13.4347 21.3712C14.4404 21.3633 15.2639 21.2832 16.226 20.3296C17.2462 19.3121 18.4269 16.6999 18.2227 15.1936ZM31.0346 13.6552H28.8264L26.7494 16.0829C26.5089 16.3634 26.2611 16.6438 26.0207 16.9723H25.9988L27.0336 13.6552H25.2335L22.8068 21.3712H24.6068L25.3793 18.9435L26.1809 18.1983L26.815 20.3938C27.0117 21.0749 27.2159 21.3712 27.6531 21.3712H29.0305L27.6167 17.0605L31.0346 13.6552Z" fill="#00B33C"/>
</svg>
