<svg width="16" height="16" viewBox="0 0 16 16" fill="none" xmlns="http://www.w3.org/2000/svg">
<g clip-path="url(#clip0_139_3599)">
<path d="M8 16C12.4183 16 16 12.4183 16 8C16 3.58172 12.4183 0 8 0C3.58172 0 0 3.58172 0 8C0 12.4183 3.58172 16 8 16Z" fill="#252525"/>
<path d="M8.63246 3.46564C8.21024 3.46564 7.86488 3.811 7.86488 4.23322V8.13283H5.33155C4.90932 8.13283 4.56396 8.47819 4.56396 8.90041C4.56396 9.32263 4.90932 9.66799 5.33155 9.66799H8.63246C9.05468 9.66799 9.40004 9.32263 9.40004 8.90041V4.23348C9.40004 3.81126 9.05468 3.4659 8.63246 3.4659V3.46564Z" fill="white"/>
</g>
<defs>
<clipPath id="clip0_139_3599">
<rect width="16" height="16" fill="white"/>
</clipPath>
</defs>
</svg>
