<svg width="29" height="27" viewBox="0 0 29 27" fill="none" xmlns="http://www.w3.org/2000/svg">
<g clip-path="url(#clip0_139_5185)">
<path d="M14.4998 11.0107C22.5078 11.0107 28.9996 8.54587 28.9996 5.50535C28.9996 2.46483 22.5078 0 14.4998 0C6.49178 0 0 2.46483 0 5.50535C0 8.54587 6.49178 11.0107 14.4998 11.0107Z" fill="#252525"/>
<path d="M14.4998 14.2267C10.3813 14.2267 6.47829 13.6061 3.50967 12.4787C2.08342 11.937 0.910444 11.2916 0.015146 10.5582V13.256C0.00589012 13.3376 0 13.4195 0 13.5019C0 13.5843 0.00589012 13.6663 0.015146 13.7478V13.7819C0.015146 13.8528 0.0294506 13.9207 0.0555354 13.9821C0.696717 16.7978 6.91837 19.0073 14.4998 19.0073C22.0812 19.0073 28.2208 16.8272 28.931 14.0381C28.9743 13.9625 28.9996 13.875 28.9996 13.7819V10.5454C28.1026 11.2843 26.9242 11.9336 25.4899 12.4783C22.5213 13.6056 18.6182 14.2263 14.4998 14.2263V14.2267Z" fill="#252525"/>
<path d="M14.4998 22.2191C10.3813 22.2191 6.47829 21.5984 3.50967 20.471C2.08342 19.9293 0.910444 19.2839 0.015146 18.5505V21.2483C0.00589012 21.3299 0 21.4118 0 21.4942C0 21.5766 0.00589012 21.6586 0.015146 21.7401V21.7743C0.015146 21.8451 0.0294506 21.913 0.0555354 21.9745C0.696717 24.7901 6.91837 26.9996 14.4998 26.9996C22.0812 26.9996 28.2208 24.8196 28.931 22.0304C28.9743 21.9548 28.9996 21.8673 28.9996 21.7743V18.5377C28.1026 19.2766 26.9242 19.9259 25.4899 20.4706C22.5213 21.598 18.6182 22.2186 14.4998 22.2186V22.2191Z" fill="#252525"/>
</g>
<defs>
<clipPath id="clip0_139_5185">
<rect width="29" height="27" fill="white"/>
</clipPath>
</defs>
</svg>
