<svg width="8" height="9" viewBox="0 0 8 9" fill="none" xmlns="http://www.w3.org/2000/svg">
<path d="M6.33327 0.0997314H3.10585C2.28391 0.0997314 1.5962 0.649484 1.46289 1.36561C1.52974 1.35956 1.59739 1.35633 1.66583 1.35633H4.89324C6.05037 1.35633 6.99172 2.24375 6.99172 3.33454V7.06031C7.58319 6.82643 7.99979 6.28821 7.99979 5.66546V1.61904C7.99979 0.783371 7.24986 0.0997314 6.33327 0.0997314Z" fill="white"/>
<path d="M4.89394 1.81525H1.66653C0.74993 1.81525 0 2.49889 0 3.33455V7.38098C0 8.21665 0.74993 8.90029 1.66653 8.90029H4.89394C5.81054 8.90029 6.56047 8.21665 6.56047 7.38098V3.33455C6.56047 2.49889 5.81054 1.81525 4.89394 1.81525Z" fill="white"/>
</svg>
