<svg width="128" height="128" viewBox="0 0 128 128" fill="none" xmlns="http://www.w3.org/2000/svg">
  <path d="M96 24H82.67V16C82.67 7.16 75.5 0 66.67 0h-21.34C36.5 0 29.33 7.16 29.33 16v8H16c-8.83 0-16 7.16-16 16v72c0 8.84 7.17 16 16 16h80c8.83 0 16-7.16 16-16V40c0-8.84-7.17-16-16-16zM37.33 16c0-4.42 3.58-8 8-8h21.34c4.42 0 8 3.58 8 8v8H37.33v-8zm66.67 96c0 4.42-3.58 8-8 8H16c-4.42 0-8-3.58-8-8V40c0-4.42 3.58-8 8-8h80c4.42 0 8 3.58 8 8v72z" fill="#CCCCCC"/>
  <path d="M46.67 56h-8v32h8V56zm21.33 0h-8v32h8V56zm21.33 0h-8v32h8V56z" fill="#CCCCCC"/>
</svg>