<svg width="29" height="32" viewBox="0 0 29 32" fill="none" xmlns="http://www.w3.org/2000/svg">
<path d="M14.5002 0C6.49193 0 0 6.05378 0 13.5211C0 19.8251 10.3334 28.9658 13.5535 31.6618C14.0917 32.1127 14.9083 32.1127 15.4465 31.6618C18.667 28.9662 29 19.8251 29 13.5211C29.0004 6.05378 22.5085 0 14.5002 0ZM14.5002 20.0836C11.0559 20.0836 8.26357 17.2894 8.26357 13.8427C8.26357 10.3961 11.0559 7.60184 14.5002 7.60184C17.9445 7.60184 20.7369 10.3961 20.7369 13.8427C20.7369 17.2894 17.9445 20.0836 14.5002 20.0836Z" fill="#191919"/>
</svg>
