<svg width="49" height="49" viewBox="0 0 49 49" fill="none" xmlns="http://www.w3.org/2000/svg">
<path d="M48 24.5C48 37.4787 37.4787 48 24.5 48C11.5213 48 1 37.4787 1 24.5C1 11.5213 11.5213 1 24.5 1C37.4787 1 48 11.5213 48 24.5Z" fill="#BFDBFF"/>
<path d="M24.0081 0C10.7516 0 0 10.7516 0 24.0081C0 37.2647 10.7516 48.0163 24.0081 48.0163C37.2647 48.0163 48.0163 37.2647 48.0163 24.0081C48.0163 10.7516 37.2484 0 24.0081 0ZM41.3961 28.6601C40.957 30.3029 42.6811 32.8567 41.8516 34.3043C41.0058 35.7682 37.9153 35.5405 36.7279 36.7279C35.5405 37.9153 35.7682 40.9895 34.3043 41.8516C32.8567 42.6811 30.3192 40.957 28.6601 41.3961C27.0661 41.819 25.7323 44.6167 24.0081 44.6167C22.284 44.6167 20.9502 41.8353 19.3561 41.3961C17.7133 40.957 15.1596 42.6811 13.712 41.8516C12.2481 41.0058 12.4758 37.9153 11.2884 36.7279C10.101 35.5405 7.02677 35.7682 6.16469 34.3043C5.33514 32.8567 7.0593 30.3192 6.62013 28.6601C6.19722 27.0661 3.39953 25.7323 3.39953 24.0081C3.39953 22.284 6.18096 20.9502 6.62013 19.3561C7.0593 17.7133 5.33514 15.1596 6.16469 13.712C7.0105 12.2481 10.101 12.4758 11.2884 11.2884C12.4758 10.101 12.2481 7.02677 13.712 6.16469C15.1596 5.33514 17.6971 7.0593 19.3561 6.62013C20.9502 6.19722 22.284 3.39953 24.0081 3.39953C25.7323 3.39953 27.0661 6.18096 28.6601 6.62013C30.3029 7.0593 32.8567 5.33514 34.3043 6.16469C35.7682 7.0105 35.5405 10.101 36.7279 11.2884C37.9153 12.4758 40.9895 12.2481 41.8516 13.712C42.6811 15.1596 40.957 17.6971 41.3961 19.3561C41.819 20.9502 44.6167 22.284 44.6167 24.0081C44.6167 25.7323 41.8353 27.0661 41.3961 28.6601Z" fill="#5698EE"/>
</svg>
